<?xml version="1.0" encoding="utf-8"?>
<!-- Generator: Adobe Illustrator 19.2.1, SVG Export Plug-In . SVG Version: 6.00 Build 0)  -->
<svg version="1.1" id="layer" xmlns="http://www.w3.org/2000/svg" xmlns:xlink="http://www.w3.org/1999/xlink" x="0px" y="0px"
	 viewBox="0 0 600 347" style="enable-background:new 0 0 600 347;" xml:space="preserve">
<style type="text/css">
	.st0{fill:#241F1F;}
</style>
<g>
	<path class="st0" d="m439.21053,251.7l44.3,-183.9l-95,0l-40.5,164.9c-5.9,32.2 -40.4,47.2 -64.9,47.6l-67.3,0l-22.9,66.3l141.5,0c34.9,0 86.4,-17.8 104.8,-94.9"/>
	<path class="st0" d="m239.81053,186.9l44.6,-186.9l97.8,0l-50.8,212.6c-9.8,41.1 -40.3,50.9 -68.5,50.9l-225.4,0c-24.8,0 -45.6,-10.6 -34.4,-58l20.3,-84.8c10.3,-43 42.3,-52.9 65.4,-52.9l157.3,0l-12.7,53l-80.3,0c-11.8,0 -18.3,2.6 -21.6,16.3l-13,54.1c-4.6,19.4 2.2,20.8 16.4,20.8l73.6,0c13.6,0.2 25.4,-0.7 31.3,-25.1"/>
	<polygon class="st0" points="505.0105285644531,67.89999389648438 458.9105224609375,263.5 554.0105590820312,263.5 600.0105590820312,67.89999389648438"/>
</g>
</svg>
